<mxfile host="app.diagrams.net" agent="Mozilla/5.0 (Windows NT 10.0; Win64; x64) AppleWebKit/537.36 (KHTML, like Gecko) Chrome/133.0.0.0 Safari/537.36" version="26.0.16">
  <diagram name="페이지-1" id="_voTdi8roMQfKevTXpKu">
    <mxGraphModel dx="1235" dy="614" grid="1" gridSize="10" guides="1" tooltips="1" connect="1" arrows="1" fold="1" page="1" pageScale="1" pageWidth="827" pageHeight="1169" math="0" shadow="0">
      <root>
        <mxCell id="0" />
        <mxCell id="1" parent="0" />
        <mxCell id="-wrU9Sdh_xSoCNTDjb1U-1" value="인사 담당자&lt;div&gt;&lt;br&gt;&lt;/div&gt;" style="shape=umlActor;verticalLabelPosition=bottom;verticalAlign=top;html=1;strokeWidth=3;" vertex="1" parent="1">
          <mxGeometry x="20" y="240" width="50" height="90" as="geometry" />
        </mxCell>
        <mxCell id="-wrU9Sdh_xSoCNTDjb1U-26" value="" style="endArrow=classic;html=1;rounded=0;entryX=0;entryY=0.5;entryDx=0;entryDy=0;strokeWidth=3;" edge="1" parent="1" target="-wrU9Sdh_xSoCNTDjb1U-28">
          <mxGeometry width="50" height="50" relative="1" as="geometry">
            <mxPoint x="80" y="280" as="sourcePoint" />
            <mxPoint x="180" y="160" as="targetPoint" />
          </mxGeometry>
        </mxCell>
        <mxCell id="-wrU9Sdh_xSoCNTDjb1U-28" value="&lt;div&gt;&lt;span style=&quot;background-color: transparent;&quot;&gt;직원 전체 조회&lt;/span&gt;&lt;/div&gt;&lt;div&gt;&lt;span style=&quot;background-color: transparent;&quot;&gt;(기본 : 이름,직급,부서,사번)&lt;/span&gt;&lt;/div&gt;" style="ellipse;whiteSpace=wrap;html=1;verticalAlign=middle;fontSize=15;fontColor=#000000;fontStyle=1;strokeWidth=3;" vertex="1" parent="1">
          <mxGeometry x="220" y="220" width="220" height="120" as="geometry" />
        </mxCell>
        <mxCell id="-wrU9Sdh_xSoCNTDjb1U-33" value="부서별 조회" style="ellipse;whiteSpace=wrap;html=1;verticalAlign=middle;fontSize=15;fontColor=#000000;fontStyle=1;strokeWidth=3;" vertex="1" parent="1">
          <mxGeometry x="520" y="160" width="170" height="80" as="geometry" />
        </mxCell>
        <mxCell id="-wrU9Sdh_xSoCNTDjb1U-34" value="&lt;div&gt;&lt;span style=&quot;background-color: transparent;&quot;&gt;직원명 조회&lt;/span&gt;&lt;/div&gt;" style="ellipse;whiteSpace=wrap;html=1;verticalAlign=middle;fontSize=15;fontColor=#000000;fontStyle=1;strokeWidth=3;" vertex="1" parent="1">
          <mxGeometry x="520" y="330" width="170" height="80" as="geometry" />
        </mxCell>
        <mxCell id="-wrU9Sdh_xSoCNTDjb1U-35" value="" style="endArrow=classic;html=1;rounded=0;entryX=0;entryY=0.625;entryDx=0;entryDy=0;entryPerimeter=0;exitX=1;exitY=0;exitDx=0;exitDy=0;strokeWidth=3;" edge="1" parent="1" source="-wrU9Sdh_xSoCNTDjb1U-28" target="-wrU9Sdh_xSoCNTDjb1U-33">
          <mxGeometry width="50" height="50" relative="1" as="geometry">
            <mxPoint x="280" y="230" as="sourcePoint" />
            <mxPoint x="330" y="180" as="targetPoint" />
          </mxGeometry>
        </mxCell>
        <mxCell id="-wrU9Sdh_xSoCNTDjb1U-36" value="" style="endArrow=classic;html=1;rounded=0;exitX=1;exitY=1;exitDx=0;exitDy=0;entryX=0.063;entryY=0.253;entryDx=0;entryDy=0;entryPerimeter=0;strokeWidth=3;" edge="1" parent="1" source="-wrU9Sdh_xSoCNTDjb1U-28" target="-wrU9Sdh_xSoCNTDjb1U-34">
          <mxGeometry width="50" height="50" relative="1" as="geometry">
            <mxPoint x="390" y="340" as="sourcePoint" />
            <mxPoint x="440" y="290" as="targetPoint" />
          </mxGeometry>
        </mxCell>
        <mxCell id="-wrU9Sdh_xSoCNTDjb1U-45" value="조회 항목&lt;span style=&quot;background-color: transparent; color: light-dark(rgb(0, 0, 0), rgb(255, 255, 255));&quot;&gt;&amp;nbsp;추가/삭제&lt;/span&gt;" style="ellipse;whiteSpace=wrap;html=1;fontSize=15;strokeWidth=3;" vertex="1" parent="1">
          <mxGeometry x="230" y="50" width="175" height="90" as="geometry" />
        </mxCell>
        <mxCell id="-wrU9Sdh_xSoCNTDjb1U-46" value="" style="endArrow=classic;html=1;rounded=0;exitX=0;exitY=1;exitDx=0;exitDy=0;strokeWidth=3;" edge="1" parent="1" source="-wrU9Sdh_xSoCNTDjb1U-45">
          <mxGeometry width="50" height="50" relative="1" as="geometry">
            <mxPoint x="390" y="220" as="sourcePoint" />
            <mxPoint x="170" y="250" as="targetPoint" />
          </mxGeometry>
        </mxCell>
        <mxCell id="-wrU9Sdh_xSoCNTDjb1U-49" value="" style="endArrow=classic;html=1;rounded=0;exitX=1;exitY=1;exitDx=0;exitDy=0;strokeWidth=3;" edge="1" parent="1" source="-wrU9Sdh_xSoCNTDjb1U-45">
          <mxGeometry width="50" height="50" relative="1" as="geometry">
            <mxPoint x="390" y="220" as="sourcePoint" />
            <mxPoint x="450" y="210" as="targetPoint" />
          </mxGeometry>
        </mxCell>
      </root>
    </mxGraphModel>
  </diagram>
</mxfile>
